<svg xmlns="http://www.w3.org/2000/svg" width="48" height="48" viewBox="0 0 48 48" fill="none">
  <rect width="48" height="48" rx="12" fill="#1a1425"/>
  <rect x="0.5" y="0.5" width="47" height="47" rx="11.5" stroke="url(#border)" stroke-opacity="0.35"/>
  <!-- Left brace { -->
  <path d="M17 12C14.79 12 13 13.79 13 16V20.5C13 22.15 11.65 23.5 10 23.5V25.5C11.65 25.5 13 26.85 13 28.5V33C13 35.21 14.79 37 17 37" stroke="#a855f7" stroke-width="2.5" stroke-linecap="round"/>
  <!-- Right brace } -->
  <path d="M31 12C33.21 12 35 13.79 35 16V20.5C35 22.15 36.35 23.5 38 23.5V25.5C36.35 25.5 35 26.85 35 28.5V33C35 35.21 33.21 37 31 37" stroke="#a855f7" stroke-width="2.5" stroke-linecap="round"/>
  <!-- Slash / -->
  <path d="M26 15L22 34" stroke="#c084fc" stroke-width="2.5" stroke-linecap="round"/>
  <defs>
    <linearGradient id="border" x1="0" y1="0" x2="48" y2="48" gradientUnits="userSpaceOnUse">
      <stop stop-color="#a855f7"/>
      <stop offset="1" stop-color="#6366f1"/>
    </linearGradient>
  </defs>
</svg>